<?xml version="1.0" standalone="no"?>
<!DOCTYPE svg PUBLIC "-//W3C//DTD SVG 20010904//EN"
 "http://www.w3.org/TR/2001/REC-SVG-20010904/DTD/svg10.dtd">
<svg version="1.0" xmlns="http://www.w3.org/2000/svg"
 width="400.000000pt" height="400.000000pt" viewBox="0 0 400.000000 400.000000"
 preserveAspectRatio="xMidYMid meet">

<g transform="translate(0.000000,400.000000) scale(0.100000,-0.100000)"
fill="#000000" stroke="none">
<path d="M1780 3705 c-659 -80 -1224 -550 -1425 -1185 -132 -420 -100 -872 91
-1270 242 -504 711 -856 1263 -949 152 -26 392 -28 544 -6 967 144 1620 1070
1432 2031 -79 405 -294 760 -615 1017 -362 289 -824 419 -1290 362z m465 -409
c720 -147 1185 -832 1049 -1547 -95 -501 -482 -909 -980 -1032 -128 -32 -179
-38 -325 -38 -289 0 -555 91 -791 268 -447 337 -630 923 -458 1463 34 105 124
278 194 370 80 106 219 241 316 307 184 124 368 192 615 227 57 8 310 -4 380
-18z"/>
<path d="M2510 2810 c-31 -15 -116 -92 -276 -251 -127 -126 -235 -229 -240
-229 -5 0 -106 97 -224 216 -238 239 -273 264 -370 264 -128 -1 -230 -102
-230 -229 0 -88 11 -104 258 -352 l234 -236 -229 -229 c-142 -142 -236 -244
-248 -269 -89 -190 89 -390 285 -319 45 16 83 49 287 253 l234 234 237 -235
c195 -193 244 -236 278 -246 87 -25 165 -9 226 46 53 48 78 102 78 172 0 96
-21 125 -261 365 -120 121 -219 223 -219 226 0 3 104 108 231 234 127 127 239
246 248 265 41 80 36 165 -13 238 -60 90 -190 127 -286 82z"/>
</g>
</svg>
